<svg enable-background="new 0 0 24 24" height="24" viewBox="0 0 24 24" width="24" xmlns="http://www.w3.org/2000/svg">
  <path fill="#0B114D" d="m13.89 8.7-1.89 1.89-1.89-1.89c-.39-.39-1.02-.39-1.41 0-.39.39-.39 1.02 0 1.41l1.89 1.89-1.89 1.89c-.39.39-.39 1.02 0 1.41.39.39 1.02.39 1.41 0l1.89-1.89 1.89 1.89c.39.39 1.02.39 1.41 0 .39-.39.39-1.02 0-1.41l-1.89-1.89 1.89-1.89c.39-.39.39-1.02 0-1.41-.39-.38-1.03-.38-1.41 0zm-1.89-6.7c-5.53 0-10 4.47-10 10s4.47 10 10 10 10-4.47 10-10-4.47-10-10-10zm0 18c-4.41 0-8-3.59-8-8s3.59-8 8-8 8 3.59 8 8-3.59 8-8 8z"/>
</svg>